<?xml version="1.0" standalone="no"?><!DOCTYPE svg PUBLIC "-//W3C//DTD SVG 1.1//EN" "http://www.w3.org/Graphics/SVG/1.1/DTD/svg11.dtd"><svg t="1657438310801" class="icon" viewBox="0 0 1024 1024" version="1.1" xmlns="http://www.w3.org/2000/svg" p-id="3430" xmlns:xlink="http://www.w3.org/1999/xlink" width="48" height="48"><defs><style type="text/css">@font-face { font-family: feedback-iconfont; src: url("//at.alicdn.com/t/font_1031158_u69w8yhxdu.woff2?t=1630033759944") format("woff2"), url("//at.alicdn.com/t/font_1031158_u69w8yhxdu.woff?t=1630033759944") format("woff"), url("//at.alicdn.com/t/font_1031158_u69w8yhxdu.ttf?t=1630033759944") format("truetype"); }
</style></defs><path d="M511.3 64.2c-247 0-448 201-448 448s201 448 448 448 448-201 448-448-200.9-448-448-448z m0 833.3C298.9 897.5 126 724.7 126 512.2s172.8-385.3 385.3-385.3c212.4 0 385.3 172.8 385.3 385.3S723.8 897.5 511.3 897.5z" p-id="3431"></path><path d="M696.2 481.8H541.3v-155c0-17.3-14.1-31.4-31.4-31.4-17.3 0-31.4 14.1-31.4 31.4v154.9h-155c-17.3 0-31.4 14.1-31.4 31.4 0 17.3 14.1 31.4 31.4 31.4h155v154.9c0 17.3 14.1 31.4 31.4 31.4 17.3 0 31.4-14.1 31.4-31.4V544.5h154.9c17.3 0 31.4-14.1 31.4-31.4 0-17.3-14.1-31.3-31.4-31.3z" p-id="3432"></path></svg>