<?xml version="1.0" standalone="no"?><!DOCTYPE svg PUBLIC "-//W3C//DTD SVG 1.1//EN" "http://www.w3.org/Graphics/SVG/1.1/DTD/svg11.dtd"><svg t="1657438209016" class="icon" viewBox="0 0 1024 1024" version="1.1" xmlns="http://www.w3.org/2000/svg" p-id="2470" xmlns:xlink="http://www.w3.org/1999/xlink" width="48" height="48"><defs><style type="text/css">@font-face { font-family: feedback-iconfont; src: url("//at.alicdn.com/t/font_1031158_u69w8yhxdu.woff2?t=1630033759944") format("woff2"), url("//at.alicdn.com/t/font_1031158_u69w8yhxdu.woff?t=1630033759944") format("woff"), url("//at.alicdn.com/t/font_1031158_u69w8yhxdu.ttf?t=1630033759944") format("truetype"); }
</style></defs><path d="M508.544 66.88A448 448 0 0 0 60.992 514.432a448 448 0 0 0 447.552 447.552 448 448 0 0 0 447.552-447.552 448 448 0 0 0-447.552-447.552z m0 831.104a384 384 0 0 1-383.552-383.552 384 384 0 0 1 383.552-383.552 384 384 0 0 1 383.552 383.552 384 384 0 0 1-383.552 383.552z" p-id="2471"></path><path d="M367.488 404.48m-48 0a48 48 0 1 0 96 0 48 48 0 1 0-96 0Z" p-id="2472"></path><path d="M635.52 404.48m-48 0a48 48 0 1 0 96 0 48 48 0 1 0-96 0Z" p-id="2473"></path><path d="M669.248 613.056a31.936 31.936 0 0 0-44.16 9.664c-20.8 32.448-67.968 53.44-120.064 53.44-52.096 0-99.2-20.928-120-53.376a32 32 0 1 0-53.888 34.496c32.768 51.136 99.392 82.88 173.888 82.88 74.56 0 141.184-31.744 173.952-82.944a32 32 0 0 0-9.728-44.16z" p-id="2474"></path></svg>